<svg xmlns="http://www.w3.org/2000/svg" xmlns:xlink="http://www.w3.org/1999/xlink" width="91" height="27" viewBox="0 0 91 27"><defs><path id="yvt9a" d="M573.762 2313h-84.574a3.197 3.197 0 0 1-3.188-3.195v-20.615c0-1.759 1.43-3.19 3.188-3.19h84.574c1.757 0 3.238 1.431 3.238 3.19v20.615c0 1.759-1.48 3.195-3.238 3.195z"/><path id="yvt9b" d="M576.347 2309.806a2.583 2.583 0 0 1-2.585 2.585h-84.574a2.587 2.587 0 0 1-2.587-2.585v-20.617a2.59 2.59 0 0 1 2.587-2.588h84.574a2.586 2.586 0 0 1 2.584 2.588v20.617z"/><path id="yvt9c" d="M506.336 2299.354c-.02-2.175 1.782-3.234 1.864-3.283-1.02-1.487-2.6-1.69-3.156-1.706-1.328-.14-2.616.794-3.292.794-.69 0-1.732-.78-2.854-.758-1.445.022-2.796.859-3.537 2.157-1.53 2.648-.389 6.54 1.077 8.68.733 1.048 1.59 2.219 2.71 2.178 1.097-.046 1.507-.7 2.83-.7 1.312 0 1.697.7 2.84.673 1.178-.019 1.919-1.053 2.626-2.11.847-1.202 1.187-2.385 1.2-2.446-.027-.01-2.285-.871-2.308-3.479z"/><path id="yvt9d" d="M504.176 2292.957c.59-.738.994-1.742.882-2.76-.854.037-1.922.59-2.537 1.312-.544.636-1.03 1.678-.904 2.658.959.071 1.944-.484 2.56-1.21z"/><path id="yvt9e" d="M519.46 2303.52l-.76-2.346c-.08-.24-.23-.804-.453-1.692h-.027c-.088.382-.23.946-.426 1.692l-.746 2.346zm2.625 3.745h-1.533l-.84-2.638h-2.918l-.8 2.638h-1.492l2.891-8.983h1.787z"/><path id="yvt9f" d="M528.056 2304c0-.63-.142-1.15-.427-1.56a1.473 1.473 0 0 0-1.253-.64c-.355 0-.677.12-.966.353a1.637 1.637 0 0 0-.566.927 1.884 1.884 0 0 0-.067.439v1.08c0 .471.145.869.434 1.193.289.325.664.487 1.126.487.542 0 .963-.21 1.265-.626.303-.418.454-.969.454-1.653zm1.466-.053c0 1.101-.298 1.972-.893 2.611-.533.57-1.196.854-1.986.854-.853 0-1.466-.307-1.84-.92h-.026v3.412h-1.44v-6.984c0-.692-.018-1.403-.053-2.132h1.266l.08 1.027h.027c.48-.774 1.208-1.16 2.186-1.16.764 0 1.402.302 1.912.906.512.605.767 1.4.767 2.386z"/><path id="yvt9g" d="M535.506 2304c0-.63-.143-1.15-.428-1.56a1.471 1.471 0 0 0-1.252-.64c-.355 0-.677.12-.966.353a1.636 1.636 0 0 0-.566.927 1.92 1.92 0 0 0-.067.439v1.08c0 .471.145.869.432 1.193.29.324.664.487 1.127.487.543 0 .964-.21 1.266-.626.303-.418.454-.969.454-1.653zm1.466-.053c0 1.101-.298 1.972-.894 2.611-.532.57-1.195.854-1.985.854-.853 0-1.466-.307-1.839-.92h-.027v3.412h-1.439v-6.984c0-.692-.018-1.403-.053-2.132H532l.08 1.027h.028c.479-.774 1.207-1.16 2.185-1.16.764 0 1.402.302 1.913.906.51.605.766 1.4.766 2.386z"/><path id="yvt9h" d="M545.301 2304.746c0 .764-.265 1.386-.798 1.866-.585.524-1.4.786-2.446.786-.967 0-1.742-.186-2.328-.56l.333-1.199a3.945 3.945 0 0 0 2.08.574c.542 0 .964-.123 1.267-.367.302-.245.453-.573.453-.982 0-.364-.125-.671-.374-.92-.247-.25-.661-.481-1.239-.695-1.573-.587-2.358-1.446-2.358-2.576 0-.738.275-1.344.826-1.815.55-.472 1.283-.707 2.2-.707.817 0 1.496.142 2.038.426l-.36 1.173c-.506-.275-1.078-.413-1.719-.413-.506 0-.902.125-1.185.374-.24.222-.36.492-.36.813 0 .355.137.649.412.88.24.213.675.444 1.307.693.773.31 1.34.675 1.706 1.092.364.416.545.936.545 1.557z"/><path id="yvt9i" d="M550.06 2301.868h-1.587v3.145c0 .8.28 1.2.84 1.2.257 0 .47-.023.64-.068l.039 1.093c-.284.106-.657.16-1.12.16-.568 0-1.012-.174-1.332-.52-.32-.347-.48-.93-.48-1.746v-3.265h-.945v-1.08h.945v-1.186l1.413-.427v1.613h1.586z"/><path id="yvt9j" d="M555.723 2304.02c0-.598-.127-1.11-.386-1.537-.302-.517-.733-.775-1.292-.775-.578 0-1.018.258-1.32.775-.258.428-.385.948-.385 1.564 0 .597.127 1.11.386 1.536.31.517.746.775 1.306.775.55 0 .981-.263 1.292-.788.266-.436.4-.953.4-1.55zm1.493-.047c0 .996-.284 1.813-.853 2.453-.596.658-1.387.986-2.373.986-.95 0-1.707-.316-2.271-.946-.565-.63-.847-1.426-.847-2.385 0-1.004.29-1.826.873-2.466.581-.64 1.365-.96 2.352-.96.95 0 1.715.316 2.292.947.552.612.827 1.403.827 2.371z"/><path id="yvt9k" d="M561.894 2302.054a2.498 2.498 0 0 0-.453-.04c-.507 0-.898.19-1.174.573-.24.338-.36.765-.36 1.28v3.398h-1.438l.014-4.437c0-.747-.019-1.427-.054-2.04h1.253l.053 1.24h.04c.152-.426.391-.769.72-1.026a1.74 1.74 0 0 1 1.04-.347c.132 0 .253.01.36.026z"/><path id="yvt9l" d="M566.958 2303.347c.01-.427-.084-.795-.28-1.107-.248-.4-.631-.6-1.146-.6-.47 0-.853.195-1.146.587-.24.311-.382.684-.426 1.12h2.998zm1.372.373c0 .258-.017.475-.052.653h-4.318c.017.64.226 1.13.627 1.467.364.301.834.453 1.412.453.64 0 1.222-.102 1.747-.307l.225 1c-.613.266-1.336.4-2.171.4-1.005 0-1.793-.296-2.367-.887-.572-.59-.86-1.384-.86-2.379 0-.976.268-1.79.801-2.438.56-.693 1.315-1.04 2.265-1.04.934 0 1.64.347 2.12 1.04.38.55.571 1.23.571 2.038z"/><path id="yvt9m" d="M518.238 2292.776c0-.515-.136-.91-.41-1.186-.272-.274-.67-.412-1.195-.412-.222 0-.412.015-.57.046v3.3c.088.013.247.02.479.02.54 0 .959-.151 1.253-.452.294-.301.443-.74.443-1.316zm.746-.02c0 .795-.239 1.393-.714 1.794-.441.37-1.068.556-1.879.556a8.71 8.71 0 0 1-1.035-.052v-4.341c.376-.06.781-.092 1.219-.092.773 0 1.355.168 1.748.504.44.38.66.924.66 1.631z"/><path id="yvt9n" d="M522.205 2293.473a1.44 1.44 0 0 0-.19-.755c-.148-.254-.36-.381-.634-.381a.71.71 0 0 0-.649.38c-.127.21-.19.466-.19.769 0 .293.064.545.19.755.153.254.367.38.642.38.27 0 .482-.128.634-.387a1.43 1.43 0 0 0 .197-.761zm.734-.023c0 .49-.14.89-.42 1.205-.293.323-.68.484-1.165.484-.467 0-.84-.154-1.117-.465-.277-.31-.415-.7-.415-1.171 0-.493.143-.897.429-1.211.286-.314.67-.471 1.155-.471.467 0 .843.154 1.127.464.27.301.406.69.406 1.165z"/><path id="yvt9o" d="M528.241 2291.885l-.995 3.182h-.648l-.413-1.381c-.104-.345-.19-.688-.255-1.028h-.013c-.062.35-.147.691-.256 1.028l-.438 1.381h-.656l-.936-3.182h.727l.36 1.513c.087.358.158.699.216 1.021h.013c.052-.266.14-.605.262-1.014l.452-1.519h.576l.433 1.486c.105.363.19.712.255 1.048h.02c.048-.327.12-.676.216-1.048l.386-1.486h.694z"/><path id="yvt9p" d="M531.909 2295.067h-.708v-1.822c0-.562-.213-.843-.641-.843-.21 0-.38.077-.511.232a.822.822 0 0 0-.196.545v1.888h-.708v-2.272c0-.28-.009-.583-.025-.911h.621l.033.497h.02c.082-.154.205-.282.366-.384.192-.118.407-.179.642-.179.297 0 .544.096.74.289.244.235.367.587.367 1.054z"/><path id="yvt9q" d="M533.86 2295.067h-.707v-4.642h.706z"/><path id="yvt9r" d="M537.29 2293.473a1.44 1.44 0 0 0-.19-.755c-.148-.254-.36-.381-.634-.381-.285 0-.5.127-.648.38-.127.21-.19.466-.19.769 0 .293.063.545.19.755.153.254.366.38.642.38.27 0 .48-.128.633-.387.132-.214.197-.467.197-.761zm.734-.023c0 .49-.14.89-.419 1.205-.293.323-.682.484-1.166.484-.468 0-.84-.154-1.116-.465-.277-.31-.415-.7-.415-1.171 0-.493.142-.897.428-1.211.287-.314.671-.471 1.155-.471.468 0 .843.154 1.127.464.27.301.406.69.406 1.165z"/><path id="yvt9s" d="M540.713 2293.974v-.491c-.78-.013-1.17.2-1.17.641 0 .166.044.29.136.374a.495.495 0 0 0 .345.124c.155 0 .3-.05.433-.147a.603.603 0 0 0 .256-.501zm.735 1.093h-.635l-.053-.366h-.02c-.217.292-.527.439-.93.439-.3 0-.542-.097-.725-.289a.904.904 0 0 1-.25-.648c0-.389.162-.685.489-.89.325-.205.783-.306 1.372-.301v-.06c0-.419-.22-.628-.661-.628-.314 0-.59.079-.83.236l-.143-.465c.295-.183.66-.274 1.091-.274.832 0 1.249.438 1.249 1.316v1.172c0 .317.015.57.046.758z"/><path id="yvt9t" d="M544.734 2293.725v-.53a.806.806 0 0 0-.275-.651.695.695 0 0 0-.473-.174.726.726 0 0 0-.623.315c-.15.21-.226.477-.226.805 0 .314.072.57.217.766.153.21.36.314.618.314a.682.682 0 0 0 .56-.262.872.872 0 0 0 .202-.583zm.733 1.342h-.627l-.033-.51h-.02c-.2.388-.542.583-1.022.583-.383 0-.703-.151-.956-.452-.253-.301-.38-.692-.38-1.172 0-.515.138-.932.413-1.25.267-.298.594-.446.982-.446.428 0 .727.144.897.432h.013v-1.827h.708v3.785c0 .31.008.595.025.857z"/><path id="yvt9u" d="M550.784 2293.473a1.44 1.44 0 0 0-.19-.755c-.148-.254-.36-.381-.635-.381-.283 0-.499.127-.648.38-.127.21-.19.466-.19.769 0 .293.064.545.19.755.153.254.366.38.642.38.27 0 .482-.128.635-.387.13-.214.196-.467.196-.761zm.733-.023c0 .49-.14.89-.419 1.205-.293.323-.68.484-1.166.484-.466 0-.838-.154-1.116-.465-.277-.31-.415-.7-.415-1.171 0-.493.142-.897.429-1.211.286-.314.67-.471 1.156-.471.466 0 .842.154 1.126.464.27.301.405.69.405 1.165z"/><path id="yvt9v" d="M555.321 2295.067h-.707v-1.822c0-.562-.213-.843-.642-.843-.21 0-.379.077-.51.232a.818.818 0 0 0-.196.545v1.888h-.708v-2.272c0-.28-.009-.583-.025-.911h.62l.034.497h.02c.082-.154.205-.282.366-.384.192-.118.406-.179.642-.179.296 0 .543.096.74.289.245.235.366.587.366 1.054z"/><path id="yvt9w" d="M560.082 2292.415h-.78v1.546c0 .393.14.59.413.59.127 0 .232-.012.316-.034l.018.537a1.59 1.59 0 0 1-.55.079c-.28 0-.497-.085-.654-.255-.158-.17-.236-.457-.236-.858v-1.605h-.465v-.53h.465v-.583l.693-.21v.793h.78v.53z"/><path id="yvt9x" d="M563.827 2295.067h-.708v-1.809c0-.57-.214-.856-.641-.856-.328 0-.552.166-.675.496a.889.889 0 0 0-.033.255v1.914h-.707v-4.642h.707v1.918h.013a1.07 1.07 0 0 1 .956-.523c.293 0 .536.096.728.288.24.24.36.596.36 1.067v1.892z"/><path id="yvt9y" d="M567.015 2293.143a.952.952 0 0 0-.137-.544c-.123-.196-.31-.295-.563-.295-.231 0-.42.096-.563.289a1.07 1.07 0 0 0-.21.55h1.473zm.675.183c0 .127-.01.233-.027.32h-2.121c.01.315.11.555.307.72.18.15.411.223.695.223.313 0 .6-.05.858-.15l.11.491c-.302.131-.657.197-1.068.197-.492 0-.88-.145-1.161-.436-.282-.29-.422-.68-.422-1.168 0-.48.13-.88.393-1.198.274-.34.644-.51 1.112-.51.458 0 .805.17 1.04.51.19.27.284.604.284 1z"/></defs><g><g transform="translate(-486 -2286)"><g><use fill="#a6a6a6" xlink:href="#yvt9a"/></g><g><use xlink:href="#yvt9b"/></g><g><g><g><use fill="#fff" xlink:href="#yvt9c"/></g><g><use fill="#fff" xlink:href="#yvt9d"/></g></g></g><g><g><use fill="#fff" xlink:href="#yvt9e"/></g><g><use fill="#fff" xlink:href="#yvt9f"/></g><g><use fill="#fff" xlink:href="#yvt9g"/></g><g><use fill="#fff" xlink:href="#yvt9h"/></g><g><use fill="#fff" xlink:href="#yvt9i"/></g><g><use fill="#fff" xlink:href="#yvt9j"/></g><g><use fill="#fff" xlink:href="#yvt9k"/></g><g><use fill="#fff" xlink:href="#yvt9l"/></g></g><g><g><g><use fill="#fff" xlink:href="#yvt9m"/></g><g><use fill="#fff" xlink:href="#yvt9n"/></g><g><use fill="#fff" xlink:href="#yvt9o"/></g><g><use fill="#fff" xlink:href="#yvt9p"/></g><g><use fill="#fff" xlink:href="#yvt9q"/></g><g><use fill="#fff" xlink:href="#yvt9r"/></g><g><use fill="#fff" xlink:href="#yvt9s"/></g><g><use fill="#fff" xlink:href="#yvt9t"/></g><g><use fill="#fff" xlink:href="#yvt9u"/></g><g><use fill="#fff" xlink:href="#yvt9v"/></g><g><use fill="#fff" xlink:href="#yvt9w"/></g><g><use fill="#fff" xlink:href="#yvt9x"/></g><g><use fill="#fff" xlink:href="#yvt9y"/></g></g></g></g></g></svg>