<svg xmlns="http://www.w3.org/2000/svg" xmlns:xlink="http://www.w3.org/1999/xlink" width="91" height="27" viewBox="0 0 91 27"><defs><path id="q2g7a" d="M471.63 2313h-84.26a3.34 3.34 0 0 1-3.37-3.375v-20.25a3.34 3.34 0 0 1 3.37-3.375h84.26a3.34 3.34 0 0 1 3.37 3.375v20.25a3.34 3.34 0 0 1-3.37 3.375z"/><path id="q2g7b" d="M471.63 2286h-84.26c-1.887 0-3.37 1.552-3.37 3.375v20.25a3.34 3.34 0 0 0 3.37 3.375h84.26a3.34 3.34 0 0 0 3.37-3.375v-20.25c0-1.823-1.483-3.375-3.37-3.375zm0 .54a2.85 2.85 0 0 1 2.83 2.835v20.25a2.85 2.85 0 0 1-2.83 2.835h-84.26a2.85 2.85 0 0 1-2.83-2.835v-20.25a2.85 2.85 0 0 1 2.83-2.835h84.26"/><path id="q2g7c" d="M434.976 2294.775v-4.05h.608l1.957 3.172v-3.172h.54v4.05h-.54l-2.092-3.308v3.308zm-3.915-.878c.27.27.675.473 1.08.473s.81-.135 1.08-.472c.27-.27.473-.676.473-1.148 0-.472-.135-.877-.473-1.147-.27-.27-.675-.473-1.08-.473s-.81.135-1.08.472c-.27.27-.472.676-.472 1.148 0 .472.135.877.472 1.147zm2.565.338c-.405.405-.877.608-1.485.608-.607 0-1.08-.203-1.485-.608-.405-.405-.607-.877-.607-1.485 0-.608.202-1.08.607-1.485.405-.405.878-.608 1.485-.608.608 0 1.08.203 1.485.608.405.405.608.877.608 1.485 0 .608-.203 1.08-.608 1.485zm-6.952.54v-3.578h-1.148v-.472h2.768v.473h-1.148v3.577zm-2.295 0v-4.05h.54v4.05zm-3.105 0h-.54v-3.578h-1.148v-.472h2.835v.473h-1.147zm-2.228-3.577h-1.822v1.282h1.687v.472h-1.687v1.283h1.822v.54h-2.362v-4.05h2.362zm-3.105 1.687c0 .54-.135 1.012-.472 1.35-.405.405-.878.608-1.485.608-.608 0-1.08-.203-1.485-.608-.405-.405-.608-.877-.608-1.485 0-.608.203-1.08.608-1.485.405-.405.877-.608 1.485-.608.27 0 .54.068.81.203s.472.27.607.472l-.337.338c-.27-.338-.608-.473-1.08-.473-.405 0-.81.135-1.08.473-.338.27-.473.675-.473 1.147 0 .473.135.878.473 1.148.337.27.675.472 1.08.472.472 0 .81-.135 1.147-.472.203-.203.338-.473.338-.81h-1.485v-.54h1.957z"/><path id="q2g7d" d="M456.033 2297.813h1.282v8.437h-1.282zm12.69 3.037l-3.443 7.965h-1.282l1.282-2.835-2.227-5.13h1.35l1.484 3.645h.068l1.417-3.645zm-6.953 3.105c-.338-.135-.608-.27-1.147-.27-.608 0-1.35.203-1.35.877 0 .54.607.743 1.012.743.675 0 1.35-.54 1.485-1.35zm1.35-.945v3.24h-1.215v-.675h-.067c-.338.405-.743.81-1.62.81-1.08 0-2.093-.743-2.093-1.89 0-1.215 1.215-1.89 2.43-1.89.54 0 1.08.203 1.282.338v-.068c-.067-.675-.675-1.08-1.35-1.08-.472 0-.877.135-1.147.608l-1.148-.473c.338-.877 1.283-1.282 2.228-1.282 1.418 0 2.565.877 2.7 2.362zm-8.978-2.633c0-.607-.54-1.417-1.485-1.417h-1.822v2.902h1.822c.878 0 1.418-.742 1.485-1.484zm1.216.068c0 1.62-1.35 2.632-2.768 2.632h-1.755v3.173h-1.282v-8.437h3.037c1.417 0 2.768 1.012 2.768 2.632zm-17.685 3.105c0-1.012-.676-1.755-1.553-1.755-.877 0-1.62.743-1.62 1.755s.743 1.755 1.62 1.755c.878 0 1.553-.742 1.553-1.755zm-.068-2.228v-.472h1.215v5.13c0 2.092-1.215 2.97-2.7 2.97-1.418 0-2.228-.945-2.565-1.688l1.08-.472c.135.472.675 1.012 1.417 1.012.945 0 1.553-.607 1.553-1.687v-.405h-.068c-.27.337-.81.675-1.485.675-1.485 0-2.767-1.215-2.767-2.835 0-1.62 1.35-2.903 2.767-2.903.675 0 1.215.338 1.553.675zm2.025-3.51h1.282v8.438h-1.282zm5.738 4.59c-.135-.337-.608-.607-1.08-.607-.608 0-1.485.608-1.485 1.688zm1.485.473l-3.848 1.62c.338.608.743.877 1.417.877.676 0 1.08-.337 1.418-.81l.945.676c-.27.472-1.08 1.282-2.362 1.282-1.62 0-2.835-1.282-2.835-2.902 0-1.756 1.215-2.903 2.7-2.903s2.16 1.147 2.43 1.822zm-26.596-1.282c.068.202.068.472.068.742 0 .877-.27 2.025-1.08 2.835-.81.877-1.755 1.282-3.105 1.282-2.43 0-4.522-2.025-4.522-4.455s2.092-4.454 4.522-4.454c1.35 0 2.295.54 3.038 1.214l-.878.878c-.54-.472-1.282-.877-2.228-.877-1.755 0-3.172 1.417-3.172 3.24 0 1.822 1.35 3.24 3.172 3.24 1.148 0 1.823-.473 2.228-.878.338-.338.608-.878.675-1.553h-2.902v-1.214zm4.928 1.957c0-1.08-.743-1.755-1.62-1.755-.877 0-1.62.743-1.62 1.755s.743 1.755 1.62 1.755c.877 0 1.62-.742 1.62-1.755zm1.282.067c0 1.688-1.282 2.903-2.902 2.903a2.881 2.881 0 0 1-2.902-2.902c0-1.688 1.282-2.903 2.902-2.903s2.902 1.147 2.902 2.902zm4.995-.067c0-1.08-.742-1.755-1.62-1.755-.877 0-1.62.743-1.62 1.755s.743 1.755 1.62 1.755c.878 0 1.62-.742 1.62-1.755zm1.283.067c0 1.688-1.282 2.903-2.902 2.903a2.881 2.881 0 0 1-2.903-2.902c0-1.688 1.283-2.903 2.903-2.903s2.902 1.147 2.902 2.902z"/><path id="q2g7e" d="M391.02 2291.063c-.203.202-.27.54-.27.944v14.918c0 .405.135.743.338.945l.067.068 8.37-8.37v-.135z"/><path id="q2g7g" d="M402.225 2302.403l-2.768-2.768v-.203l2.768-2.767.068.068 3.307 1.89c.945.54.945 1.417 0 1.957z"/><path id="q2g7i" d="M402.293 2302.335l-2.835-2.835-8.438 8.438c.338.337.81.337 1.418.067l9.855-5.67"/><path id="q2g7k" d="M402.293 2296.665l-9.855-5.603c-.608-.337-1.08-.27-1.418.068l8.438 8.37z"/><path id="q2g7m" d="M402.225 2302.267l-9.787 5.536c-.54.337-1.013.27-1.35 0l-.068.067.068.068c.337.27.81.337 1.35 0z"/><path id="q2g7n" d="M405.6 2300.378l-3.375 1.89.068.067 3.307-1.89c.472-.27.675-.608.675-.945 0 .338-.27.608-.675.877zm-14.58 7.424c-.203-.202-.27-.54-.27-.945v.068c0 .405.135.742.338.945v-.068z"/><path id="q2g7o" d="M392.438 2291.13l13.162 7.492c.405.27.675.54.675.878 0-.338-.202-.675-.675-.945l-13.162-7.492c-.945-.54-1.688-.136-1.688.944v.068c0-1.012.743-1.485 1.688-.945z"/><linearGradient id="q2g7f" x1="398.72" x2="387.38" y1="2308.46" y2="2297.14" gradientUnits="userSpaceOnUse"><stop offset="0" stop-color="#00a0ff"/><stop offset=".01" stop-color="#00a1ff"/><stop offset=".26" stop-color="#00beff"/><stop offset=".51" stop-color="#00d2ff"/><stop offset=".76" stop-color="#00dfff"/><stop offset="1" stop-color="#00e3ff"/></linearGradient><linearGradient id="q2g7h" x1="406.84" x2="390.51" y1="2300.85" y2="2300.85" gradientUnits="userSpaceOnUse"><stop offset="0" stop-color="#ffe000"/><stop offset=".41" stop-color="#ffbd00"/><stop offset=".77" stop-color="orange"/><stop offset="1" stop-color="#ff9c00"/></linearGradient><linearGradient id="q2g7j" x1="400.76" x2="385.4" y1="2299.3" y2="2283.94" gradientUnits="userSpaceOnUse"><stop offset="0" stop-color="#ff3a44"/><stop offset="1" stop-color="#c31162"/></linearGradient><linearGradient id="q2g7l" x1="388.93" x2="395.78" y1="2314.23" y2="2307.37" gradientUnits="userSpaceOnUse"><stop offset="0" stop-color="#32a071"/><stop offset=".07" stop-color="#2da771"/><stop offset=".48" stop-color="#15cf74"/><stop offset=".8" stop-color="#06e775"/><stop offset="1" stop-color="#00f076"/></linearGradient></defs><g><g transform="translate(-384 -2286)"><g><use xlink:href="#q2g7a"/></g><g><use fill="#a6a6a6" xlink:href="#q2g7b"/></g><g><use fill="#fff" xlink:href="#q2g7c"/><use fill="#fff" fill-opacity="0" stroke="#fff" stroke-miterlimit="50" stroke-width=".2" xlink:href="#q2g7c"/></g><g><use fill="#fff" xlink:href="#q2g7d"/></g><g><g><use fill="url(#q2g7f)" xlink:href="#q2g7e"/></g><g><use fill="url(#q2g7h)" xlink:href="#q2g7g"/></g><g><use fill="url(#q2g7j)" xlink:href="#q2g7i"/></g><g><use fill="url(#q2g7l)" xlink:href="#q2g7k"/></g><g opacity=".2"><use xlink:href="#q2g7m"/></g><g opacity=".12"><use xlink:href="#q2g7n"/></g><g opacity=".25"><use fill="#fff" xlink:href="#q2g7o"/></g></g></g></g></svg>