<svg xmlns="http://www.w3.org/2000/svg" xmlns:xlink="http://www.w3.org/1999/xlink" width="35" height="24" viewBox="0 0 35 24"><defs><path id="rni5a" d="M1233.993 2265.937c0 1.135-.923 2.06-2.07 2.06h-30.852a2.06 2.06 0 0 1-2.071-2.06v-19.878c0-1.135.923-2.059 2.07-2.059h30.86c1.14 0 2.07.924 2.07 2.06v19.877z"/><path id="rni5b" d="M1211.464 2248.553c-4.064.027-7.354 3.337-7.354 7.414 0 4.098 3.317 7.422 7.401 7.422a7.393 7.393 0 0 0 4.982-1.93c.271-.245.523-.51.754-.796h-1.516a7.181 7.181 0 0 1-.55-.76h2.616c.163-.252.306-.517.435-.796h-3.48a7.802 7.802 0 0 1-.312-.781h4.098a7.477 7.477 0 0 0 .21-3.942h-4.525c.054-.265.129-.523.21-.781h4.098a6.692 6.692 0 0 0-.32-.796h-3.465c.122-.265.265-.53.421-.781h2.617a8.425 8.425 0 0 0-.571-.795h-1.454c.224-.265.475-.517.74-.748a7.353 7.353 0 0 0-4.981-1.937c-.027.007-.04.007-.054.007z"/><path id="rni5c" d="M1229.039 2255.974a7.413 7.413 0 0 1-7.4 7.421c-4.085 0-7.401-3.316-7.401-7.414s3.31-7.421 7.4-7.421c4.085-.007 7.401 3.31 7.401 7.414 0-.007 0-.007 0 0z"/><path id="rni5d" d="M1229.039 2256.056c0 4.098-3.31 7.42-7.4 7.42-4.085 0-7.401-3.315-7.401-7.413v-.007c0-4.098 3.31-7.421 7.4-7.421 4.085 0 7.401 3.316 7.401 7.42 0-.006 0-.006 0 0z"/><path id="rni5e" d="M1211.464 2248.635c-4.064.027-7.354 3.337-7.354 7.42 0 4.099 3.317 7.415 7.401 7.415a7.393 7.393 0 0 0 4.982-1.93c.271-.245.523-.51.754-.795h-1.516a7.181 7.181 0 0 1-.55-.761h2.616c.163-.258.306-.523.435-.795h-3.48a8.512 8.512 0 0 1-.312-.782h4.098a7.477 7.477 0 0 0 .21-3.941h-4.525c.054-.265.129-.524.21-.782h4.098a6.694 6.694 0 0 0-.32-.795h-3.465c.122-.265.265-.53.421-.782h2.617a8.43 8.43 0 0 0-.571-.795h-1.454a6.99 6.99 0 0 1 .74-.747 7.348 7.348 0 0 0-4.981-1.93h-.054z"/><path id="rni5f" d="M1214.243 2257.938l.102-.673c-.055 0-.136.02-.204.02-.272 0-.306-.142-.286-.25l.225-1.373h.414l.102-.741h-.394l.081-.462h-.788c-.02.02-.462 2.596-.462 2.908 0 .463.258.673.625.666.286.007.51-.068.585-.095z"/><path id="rni5g" d="M1215.898 2255.546c.441 0 .36.503.36.544h-.877c0-.055.082-.544.517-.544zm-1.387 1.115c0 1.114.734 1.38 1.36 1.38.577 0 .829-.13.829-.13l.136-.761s-.442.197-.836.197c-.843 0-.7-.632-.7-.632h1.604s.101-.51.101-.72c0-.524-.258-1.156-1.12-1.156-.79 0-1.374.857-1.374 1.822z"/><path id="rni5h" d="M1220.928 2257.938l.143-.863s-.388.197-.653.197c-.557 0-.781-.428-.781-.89 0-.931.482-1.447 1.019-1.447.401 0 .72.224.72.224l.13-.836s-.476-.197-.89-.197c-.911 0-1.795.788-1.795 2.276 0 .986.476 1.638 1.42 1.638.259.007.687-.102.687-.102z"/><path id="rni5i" d="M1210.043 2256.62c.014.136-.081.754-.557.754-.245 0-.306-.19-.306-.299 0-.217.116-.475.693-.475.13.006.143.02.17.02zm-.17-1.767c-.543 0-.951.177-.951.177l-.116.68s.34-.137.857-.137c.292 0 .51.034.51.272 0 .143-.028.197-.028.197s-.23-.02-.34-.02c-.68 0-1.4.292-1.4 1.169 0 .693.47.85.762.85.557 0 .795-.361.808-.361l-.027.3h.693l.313-2.176c0-.924-.802-.951-1.08-.951z"/><path id="rni5j" d="M1211.71 2258.02c.177 0 1.19.047 1.19-1.006 0-.979-.939-.788-.939-1.182 0-.198.157-.259.435-.259.11 0 .537.034.537.034l.102-.7s-.278-.06-.727-.06c-.584 0-1.176.23-1.176 1.032 0 .904.986.816.986 1.196 0 .252-.279.272-.49.272-.367 0-.7-.13-.7-.122l-.102.693c.02.013.225.102.884.102z"/><path id="rni5k" d="M1227.15 2256.287c0 .414-.204.972-.632.972-.286 0-.415-.238-.415-.612 0-.612.272-1.02.619-1.02.285 0 .428.198.428.66zm.367-2.06l-.17 1.06s-.3-.407-.761-.407c-.72 0-1.325.87-1.325 1.876 0 .645.319 1.277.978 1.277.469 0 .734-.333.734-.333l-.034.28h.768l.605-3.759z"/><path id="rni5l" d="M1205.572 2257.986l.482-2.834.068 2.834h.544l1.012-2.834-.448 2.834h.808l.619-3.758h-1.25l-.775 2.304-.041-2.304h-1.149l-.632 3.758h.762z"/><path id="rni5m" d="M1217.821 2257.986c.231-1.305.272-2.372.823-2.175.095-.503.19-.7.292-.917 0 0-.048-.014-.15-.014-.353 0-.611.483-.611.483l.068-.442h-.734l-.49 3.058h.802z"/><path id="rni5n" d="M1222.935 2256.62c.013.136-.082.754-.557.754-.245 0-.306-.19-.306-.299 0-.217.115-.475.693-.475.136.006.15.02.17.02zm-.17-1.767c-.544 0-.951.177-.951.177l-.116.68s.34-.137.856-.137c.292 0 .51.034.51.272 0 .143-.027.197-.027.197s-.231-.02-.34-.02c-.68 0-1.4.292-1.4 1.169 0 .693.469.85.761.85.557 0 .795-.361.809-.361l-.027.3h.693l.312-2.176c.007-.924-.801-.951-1.08-.951z"/><path id="rni5o" d="M1224.527 2257.986c.23-1.305.271-2.372.822-2.175.095-.503.19-.7.292-.917 0 0-.047-.014-.15-.014-.353 0-.611.483-.611.483l.068-.442h-.74l-.49 3.058.809.007z"/><path id="rni5p" d="M1200.461 2265.937v-19.878c0-1.135.924-2.059 2.06-2.059h-1.462c-1.142 0-2.059.924-2.059 2.06v19.884c0 1.135.917 2.059 2.06 2.059h1.46a2.068 2.068 0 0 1-2.059-2.066z"/></defs><g><g transform="translate(-1199 -2244)"><g><use fill="#3568a6" xlink:href="#rni5a"/></g><g><g><use fill="#931b1d" xlink:href="#rni5b"/></g><g><use fill="#f16622" xlink:href="#rni5c"/></g><g><use fill="#f7981d" xlink:href="#rni5d"/></g><g><use fill="#cb2026" xlink:href="#rni5e"/></g><g><g><use fill="#fff" xlink:href="#rni5f"/></g><g><use fill="#fff" xlink:href="#rni5g"/></g><g><use fill="#fff" xlink:href="#rni5h"/></g><g><use fill="#fff" xlink:href="#rni5i"/></g><g><use fill="#fff" xlink:href="#rni5j"/></g><g><use fill="#fff" xlink:href="#rni5k"/></g><g><use fill="#fff" xlink:href="#rni5l"/></g><g><use fill="#fff" xlink:href="#rni5m"/></g><g><use fill="#fff" xlink:href="#rni5n"/></g><g><use fill="#fff" xlink:href="#rni5o"/></g></g></g><g opacity=".15"><use fill="#202121" xlink:href="#rni5p"/></g></g></g></svg>