<svg xmlns="http://www.w3.org/2000/svg" xmlns:xlink="http://www.w3.org/1999/xlink" width="35" height="24" viewBox="0 0 35 24"><defs><path id="xa88a" d="M1284 2265.945a2.063 2.063 0 0 1-2.069 2.058h-30.862a2.063 2.063 0 0 1-2.069-2.058v-19.888c0-1.136.926-2.057 2.069-2.057h30.862c1.143 0 2.069.921 2.069 2.057z"/><path id="xa88b" d="M1250.463 2265.945v-19.888c0-1.136.92-2.057 2.057-2.057h-1.463a2.057 2.057 0 0 0-2.057 2.057v19.888c0 1.137.921 2.058 2.057 2.058h1.463a2.058 2.058 0 0 1-2.057-2.058z"/><path id="xa88c" d="M1271.69 2248.692c-.762-.872-2.179-1.308-4.14-1.308h-5.448c-.327 0-.654.327-.763.654l-2.179 14.273c0 .327.218.545.436.545h3.377l.872-5.339v.218c.11-.327.436-.653.763-.653h1.634c3.16 0 5.556-1.308 6.32-4.904v-.327c-.11 0-.11 0 0 0 .108-1.416-.11-2.288-.872-3.16"/><path id="xa88d" d="M1272.58 2252.178v-.327l.002-.031a3.083 3.083 0 0 0-.514-.29 4.826 4.826 0 0 0-1.65-.333h-1.592.003-3.333c-.567.021-.723.478-.764.677l-.868 5.643V2257.735c.109-.327.435-.654.762-.654h1.635c3.16 0 5.556-1.307 6.319-4.903z"/><path id="xa88e" d="M1273.652 2253.202a2.85 2.85 0 0 0-1.068-1.382l-.002.031v.327c-.763 3.596-3.16 4.903-6.32 4.903h-1.634c-.327 0-.653.327-.763.654v-.084a.932.932 0 0 0-.033.084l-.615 3.756-.223 1.365h-.001l-.25 1.525c0 .218.109.436.435.436h2.716c.547 0 .718-.425.771-.654l.023-.143.522-3.234s.068-.763.812-.763h.278c2.724 0 4.903-1.09 5.447-4.358.152-.911.144-1.769-.095-2.463z"/></defs><g><g transform="translate(-1249 -2244)"><g><use fill="#92dbef" xlink:href="#xa88a"/></g><g opacity=".15"><use fill="#202121" xlink:href="#xa88b"/></g><g><use fill="#263b80" xlink:href="#xa88c"/></g><g><use fill="#232c65" xlink:href="#xa88d"/></g><g><use fill="#139ad6" xlink:href="#xa88e"/></g></g></g></svg>