<?xml version="1.0" encoding="utf-8"?>
<!-- Generator: Adobe Illustrator 22.1.0, SVG Export Plug-In . SVG Version: 6.00 Build 0)  -->
<svg version="1.1" id="Capa_1" xmlns="http://www.w3.org/2000/svg" xmlns:xlink="http://www.w3.org/1999/xlink" x="0px" y="0px"
	 viewBox="0 0 512 353.3" style="enable-background:new 0 0 512 353.3;" xml:space="preserve">
<style type="text/css">
	.st0{fill:#C2E1FF;}
	.st1{fill:#6772E5;}
	.st2{opacity:0.15;fill:#202121;enable-background:new    ;}
</style>
<path class="st0" d="M443.6,153.2c-7.7,0-16.2,5.8-16.2,19.6H459C459,158.9,451,153.2,443.6,153.2z"/>
<path class="st0" d="M342,155.5c-7,0-11.4,2.5-14.6,6l0.1,45.6c2.9,3.2,7.2,5.8,14.5,5.8c11.3,0,18.9-12.3,18.9-28.7
	C360.9,168,353.2,155.5,342,155.5z"/>
<path class="st0" d="M481.7,0H30.3C13.5,0,0,13.5,0,30.2v292.6c0,16.7,13.5,30.3,30.3,30.3h451.5c16.7,0,30.3-13.6,30.3-30.3V30.2
	C512,13.5,498.5,0,481.7,0z M80.9,240c-10.6,0-22.1-2.1-33.5-7v-29.2c10.3,5.6,23.3,9.8,33.5,9.8c6.9,0,11.8-1.8,11.8-7.5
	c0-14.6-46.7-9.2-46.7-43.1c0-21.7,16.6-34.7,41.5-34.7c10.2,0,20.3,1.6,30.4,5.6v28.9c-9.3-5-21.1-7.9-30.4-7.9
	c-6.5,0-10.4,1.8-10.4,6.6c0,13.8,46.8,7.2,46.9,43.8C124,227.3,106.4,240,80.9,240z M183.3,156.5H160v43.6
	c0,18.2,19.4,12.5,23.3,10.9v24.9c-4.1,2.2-11.4,4.1-21.5,4.1c-18.2,0-31.8-13.4-31.8-31.6l0.1-98.3l30-6.4l-0.1,26.6h23.3V156.5z
	 M247,158.6c-3.8-1.4-16.1-3.1-23.3,6.4v72.8H193V130.3h26.5l2,9.1c7.2-13.3,21.6-10.6,25.5-9.1V158.6z M285.3,237.8h-30.8V130.3
	h30.8V237.8z M285.3,114.4l-30.8,6.6V96l30.8-6.5V114.4z M349.3,239.8c-10.8,0-17.3-4.5-21.7-7.7l-0.1,34.7l-30.7,6.5V130.2h27
	l1.6,7.6c4.3-3.9,12-9.6,24.1-9.6l0,0c21.5,0,41.7,19.4,41.9,55C391.3,222.2,371.2,239.8,349.3,239.8z M487.8,195.4h-60
	c1.4,14.5,11.9,18.7,23.8,18.7c12.2,0,21.7-2.6,30.1-6.8v24.6c-8.3,4.7-19.4,8-34,8c-30,0-50.8-18.7-50.8-55.6
	c0-31.2,17.7-56,46.9-56c29.1,0,44.3,24.8,44.3,56.2C488,187.4,487.8,193.8,487.8,195.4z"/>
<path class="st1" d="M443.7,128.2c-29.2,0-46.9,24.8-46.9,56c0,37,20.9,55.6,50.8,55.6c14.6,0,25.7-3.3,34-8v-24.6
	c-8.3,4.2-17.9,6.8-30.1,6.8c-11.9,0-22.5-4.2-23.8-18.7h60c0-1.6,0.2-8,0.2-10.9C488,153,472.8,128.2,443.7,128.2z M427.3,172.8
	c0-13.9,8.5-19.6,16.2-19.6c7.5,0,15.5,5.8,15.5,19.6H427.3z"/>
<path class="st1" d="M349.4,128.2L349.4,128.2c-12,0-19.8,5.6-24.1,9.6l-1.6-7.6h-27v143.2l30.7-6.5l0.1-34.7
	c4.4,3.2,10.9,7.7,21.7,7.7c22,0,42-17.7,42-56.6C391.1,147.6,370.9,128.2,349.4,128.2z M342,212.8c-7.2,0-11.5-2.6-14.5-5.8
	l-0.1-45.6c3.2-3.6,7.6-6,14.6-6c11.2,0,18.9,12.5,18.9,28.6C360.9,200.6,353.3,212.8,342,212.8z"/>
<polygon class="st1" points="254.5,121 285.3,114.4 285.3,89.4 254.5,95.9 "/>
<rect x="254.5" y="130.3" class="st1" width="30.8" height="107.4"/>
<path class="st1" d="M221.4,139.4L221.4,139.4L221.4,139.4z"/>
<path class="st1" d="M221.4,139.4L221.4,139.4L221.4,139.4L221.4,139.4l-2-9.1H193v107.4h30.7v-72.8c7.2-9.5,19.5-7.7,23.3-6.4
	v-28.2C243.1,128.9,228.7,126.1,221.4,139.4z"/>
<path class="st1" d="M160.1,103.7l-30,6.4l-0.1,98.3c0,18.2,13.6,31.6,31.8,31.6c10.1,0,17.4-1.8,21.5-4.1V211
	c-3.9,1.6-23.3,7.2-23.3-10.9v-43.6h23.3v-26.2H160L160.1,103.7z"/>
<path class="st1" d="M77.1,161.5c0-4.8,3.9-6.6,10.4-6.6c9.3,0,21.1,2.8,30.4,7.9v-28.9c-10.2-4.1-20.3-5.6-30.4-5.6
	c-24.9,0-41.5,13-41.5,34.7c0,33.9,46.7,28.5,46.7,43.1c0,5.6-4.9,7.5-11.8,7.5c-10.2,0-23.2-4.2-33.5-9.8V233c11.4,4.9,23,7,33.5,7
	c25.5,0,43.1-12.6,43.1-34.6C123.8,168.8,77.1,175.3,77.1,161.5z"/>
<path class="st2" d="M21.5,322.8V30.2c0-16.7,13.6-30.3,30.3-30.3H30.3C13.6,0,0,13.5,0,30.2v292.6c0,16.7,13.6,30.3,30.3,30.3h21.5
	C35.1,353,21.5,339.5,21.5,322.8z"/>
</svg>
