<svg xmlns="http://www.w3.org/2000/svg" xmlns:xlink="http://www.w3.org/1999/xlink" width="35" height="24" viewBox="0 0 35 24"><defs><path id="5o0ya" d="M1184 2265.945a2.063 2.063 0 0 1-2.069 2.058h-30.862a2.063 2.063 0 0 1-2.07-2.058v-19.888c0-1.136.927-2.057 2.07-2.057h30.862c1.143 0 2.069.921 2.069 2.057z"/><path id="5o0yb" d="M1156.725 2256.14l-.817-3.92c-.14-.541-.547-.702-1.054-.723h-3.747l-.034.179c2.919.707 4.85 2.414 5.652 4.464z"/><path id="5o0yc" d="M1165.486 2251.576h-2.421l-1.512 8.873h2.417z"/><path id="5o0yd" d="M1158.2 2260.44l3.808-8.858h-2.562l-2.369 6.052-.253-.914c-.464-1.1-1.79-2.682-3.349-3.678l2.165 7.4z"/><path id="5o0ye" d="M1172.428 2257.548c.009-1.007-.638-1.776-2.032-2.41-.847-.41-1.363-.684-1.357-1.1 0-.367.437-.762 1.385-.762a4.465 4.465 0 0 1 1.81.34l.218.1.328-1.922a6.27 6.27 0 0 0-2.168-.37c-2.39 0-4.072 1.202-4.087 2.927-.015 1.276 1.202 1.986 2.12 2.411.94.434 1.257.71 1.25 1.1-.006.594-.75.865-1.445.865-.969 0-1.482-.134-2.278-.465l-.31-.142-.339 1.988c.564.247 1.609.462 2.693.471 2.542 0 4.194-1.187 4.212-3.031z"/><path id="5o0yf" d="M1177.04 2254.822c-.012.024.201-.513.322-.848l.164.766s.462 2.12.56 2.563h-2.008c.2-.51.962-2.481.962-2.481zm-1.657 4.297l3.097.003c.073.309.295 1.33.295 1.33h2.244l-1.96-8.867h-1.867c-.58 0-1.01.158-1.266.735l-3.592 8.132h2.542s.412-1.093.507-1.333z"/><path id="5o0yg" d="M1181.931 2244h-30.862a2.063 2.063 0 0 0-2.07 2.057v2.136h35v-2.136a2.063 2.063 0 0 0-2.068-2.057z"/><path id="5o0yh" d="M1181.931 2268.003h-30.862a2.063 2.063 0 0 1-2.07-2.057v-2.136h35v2.136a2.063 2.063 0 0 1-2.068 2.057z"/><path id="5o0yi" d="M1150.463 2265.945v-19.888c0-1.136.92-2.057 2.057-2.057h-1.463a2.057 2.057 0 0 0-2.057 2.057v19.888c0 1.137.921 2.058 2.057 2.058h1.463a2.058 2.058 0 0 1-2.057-2.058z"/></defs><g><g transform="translate(-1149 -2244)"><g><use fill="#fff" xlink:href="#5o0ya"/></g><g><use fill="#f79f1a" xlink:href="#5o0yb"/></g><g><g><use fill="#059bbf" xlink:href="#5o0yc"/></g><g><use fill="#059bbf" xlink:href="#5o0yd"/></g><g><use fill="#059bbf" xlink:href="#5o0ye"/></g><g><use fill="#059bbf" xlink:href="#5o0yf"/></g><g><use fill="#059bbf" xlink:href="#5o0yg"/></g></g><g><use fill="#f79f1a" xlink:href="#5o0yh"/></g><g opacity=".15"><use fill="#202121" xlink:href="#5o0yi"/></g></g></g></svg>